<svg width="729" height="300" viewBox="0 0 729 300" fill="none" xmlns="http://www.w3.org/2000/svg">
<path d="M252.687 120H279.507L300.027 246H280.227L276.627 220.98V221.34H254.127L250.527 246H232.167L252.687 120ZM274.287 204.24L265.467 141.96H265.107L256.467 204.24H274.287ZM320.776 228.36L357.496 138H322.576V120H378.736V137.64L342.016 228H378.736V246H320.776V228.36ZM419.831 138H399.131V120H460.331V138H439.631V246H419.831V138ZM484.317 120H513.657C523.857 120 531.297 122.4 535.977 127.2C540.657 131.88 542.997 139.14 542.997 148.98V156.72C542.997 169.8 538.677 178.08 530.037 181.56V181.92C534.837 183.36 538.197 186.3 540.117 190.74C542.157 195.18 543.177 201.12 543.177 208.56V230.7C543.177 234.3 543.297 237.24 543.537 239.52C543.777 241.68 544.377 243.84 545.337 246H525.177C524.457 243.96 523.977 242.04 523.737 240.24C523.497 238.44 523.377 235.2 523.377 230.52V207.48C523.377 201.72 522.417 197.7 520.497 195.42C518.697 193.14 515.517 192 510.957 192H504.117V246H484.317V120ZM511.317 174C515.277 174 518.217 172.98 520.137 170.94C522.177 168.9 523.197 165.48 523.197 160.68V150.96C523.197 146.4 522.357 143.1 520.677 141.06C519.117 139.02 516.597 138 513.117 138H504.117V174H511.317ZM599.935 247.8C590.215 247.8 582.775 245.04 577.615 239.52C572.455 234 569.875 226.2 569.875 216.12V149.88C569.875 139.8 572.455 132 577.615 126.48C582.775 120.96 590.215 118.2 599.935 118.2C609.655 118.2 617.095 120.96 622.255 126.48C627.415 132 629.995 139.8 629.995 149.88V216.12C629.995 226.2 627.415 234 622.255 239.52C617.095 245.04 609.655 247.8 599.935 247.8ZM599.935 229.8C606.775 229.8 610.195 225.66 610.195 217.38V148.62C610.195 140.34 606.775 136.2 599.935 136.2C593.095 136.2 589.675 140.34 589.675 148.62V217.38C589.675 225.66 593.095 229.8 599.935 229.8ZM657.785 120H682.625L701.885 195.42H702.245V120H719.885V246H699.545L675.785 154.02H675.425V246H657.785V120Z" fill="#354ED2"/>
<path d="M252.687 120V116H249.286L248.739 119.357L252.687 120ZM279.507 120L283.455 119.357L282.908 116H279.507V120ZM300.027 246V250H304.731L303.975 245.357L300.027 246ZM280.227 246L276.268 246.57L276.761 250H280.227V246ZM276.627 220.98L280.586 220.41L272.627 220.98H276.627ZM276.627 221.34V225.34H280.627V221.34H276.627ZM254.127 221.34V217.34H250.668L250.169 220.762L254.127 221.34ZM250.527 246V250H253.985L254.485 246.578L250.527 246ZM232.167 246L228.219 245.357L227.463 250H232.167V246ZM274.287 204.24V208.24H278.893L278.247 203.679L274.287 204.24ZM265.467 141.96L269.427 141.399L268.94 137.96H265.467V141.96ZM265.107 141.96V137.96H261.623L261.145 141.41L265.107 141.96ZM256.467 204.24L252.505 203.69L251.874 208.24H256.467V204.24ZM252.687 124H279.507V116H252.687V124ZM275.559 120.643L296.079 246.643L303.975 245.357L283.455 119.357L275.559 120.643ZM300.027 242H280.227V250H300.027V242ZM284.186 245.43L280.586 220.41L272.668 221.55L276.268 246.57L284.186 245.43ZM272.627 220.98V221.34H280.627V220.98H272.627ZM276.627 217.34H254.127V225.34H276.627V217.34ZM250.169 220.762L246.569 245.422L254.485 246.578L258.085 221.918L250.169 220.762ZM250.527 242H232.167V250H250.527V242ZM236.115 246.643L256.635 120.643L248.739 119.357L228.219 245.357L236.115 246.643ZM278.247 203.679L269.427 141.399L261.506 142.521L270.326 204.801L278.247 203.679ZM265.467 137.96H265.107V145.96H265.467V137.96ZM261.145 141.41L252.505 203.69L260.429 204.79L269.069 142.51L261.145 141.41ZM256.467 208.24H274.287V200.24H256.467V208.24ZM320.776 228.36L317.07 226.854L316.776 227.578V228.36H320.776ZM357.496 138L361.202 139.506L363.439 134H357.496V138ZM322.576 138H318.576V142H322.576V138ZM322.576 120V116H318.576V120H322.576ZM378.736 120H382.736V116H378.736V120ZM378.736 137.64L382.442 139.146L382.736 138.422V137.64H378.736ZM342.016 228L338.31 226.494L336.073 232H342.016V228ZM378.736 228H382.736V224H378.736V228ZM378.736 246V250H382.736V246H378.736ZM320.776 246H316.776V250H320.776V246ZM324.482 229.866L361.202 139.506L353.79 136.494L317.07 226.854L324.482 229.866ZM357.496 134H322.576V142H357.496V134ZM326.576 138V120H318.576V138H326.576ZM322.576 124H378.736V116H322.576V124ZM374.736 120V137.64H382.736V120H374.736ZM375.03 136.134L338.31 226.494L345.722 229.506L382.442 139.146L375.03 136.134ZM342.016 232H378.736V224H342.016V232ZM374.736 228V246H382.736V228H374.736ZM378.736 242H320.776V250H378.736V242ZM324.776 246V228.36H316.776V246H324.776ZM419.831 138H423.831V134H419.831V138ZM399.131 138H395.131V142H399.131V138ZM399.131 120V116H395.131V120H399.131ZM460.331 120H464.331V116H460.331V120ZM460.331 138V142H464.331V138H460.331ZM439.631 138V134H435.631V138H439.631ZM439.631 246V250H443.631V246H439.631ZM419.831 246H415.831V250H419.831V246ZM419.831 134H399.131V142H419.831V134ZM403.131 138V120H395.131V138H403.131ZM399.131 124H460.331V116H399.131V124ZM456.331 120V138H464.331V120H456.331ZM460.331 134H439.631V142H460.331V134ZM435.631 138V246H443.631V138H435.631ZM439.631 242H419.831V250H439.631V242ZM423.831 246V138H415.831V246H423.831ZM484.317 120V116H480.317V120H484.317ZM535.977 127.2L533.113 129.992L533.131 130.011L533.149 130.028L535.977 127.2ZM530.037 181.56L528.543 177.85L526.037 178.859V181.56H530.037ZM530.037 181.92H526.037V184.896L528.888 185.751L530.037 181.92ZM540.117 190.74L536.446 192.328L536.464 192.369L536.483 192.41L540.117 190.74ZM543.537 239.52L539.559 239.939L539.56 239.95L539.562 239.962L543.537 239.52ZM545.337 246V250H551.492L548.993 244.375L545.337 246ZM525.177 246L521.405 247.331L522.347 250H525.177V246ZM520.497 195.42L517.358 197.899L517.397 197.948L517.438 197.997L520.497 195.42ZM504.117 192V188H500.117V192H504.117ZM504.117 246V250H508.117V246H504.117ZM484.317 246H480.317V250H484.317V246ZM520.137 170.94L517.309 168.112L517.266 168.154L517.225 168.199L520.137 170.94ZM520.677 141.06L517.5 143.49L517.544 143.547L517.59 143.603L520.677 141.06ZM504.117 138V134H500.117V138H504.117ZM504.117 174H500.117V178H504.117V174ZM484.317 124H513.657V116H484.317V124ZM513.657 124C523.334 124 529.501 126.287 533.113 129.992L538.841 124.408C533.094 118.513 524.381 116 513.657 116V124ZM533.149 130.028C536.781 133.661 538.997 139.689 538.997 148.98H546.997C546.997 138.591 544.534 130.099 538.806 124.372L533.149 130.028ZM538.997 148.98V156.72H546.997V148.98H538.997ZM538.997 156.72C538.997 162.859 537.978 167.503 536.211 170.89C534.49 174.188 531.977 176.467 528.543 177.85L531.532 185.27C536.738 183.173 540.704 179.572 543.304 174.59C545.857 169.697 546.997 163.661 546.997 156.72H538.997ZM526.037 181.56V181.92H534.037V181.56H526.037ZM528.888 185.751C532.604 186.866 535.013 189.015 536.446 192.328L543.789 189.152C541.381 183.585 537.07 179.854 531.187 178.089L528.888 185.751ZM536.483 192.41C538.189 196.125 539.177 201.424 539.177 208.56H547.177C547.177 200.816 546.125 194.235 543.752 189.07L536.483 192.41ZM539.177 208.56V230.7H547.177V208.56H539.177ZM539.177 230.7C539.177 234.371 539.299 237.465 539.559 239.939L547.515 239.101C547.296 237.015 547.177 234.229 547.177 230.7H539.177ZM539.562 239.962C539.851 242.564 540.57 245.122 541.682 247.625L548.993 244.375C548.185 242.558 547.704 240.796 547.513 239.078L539.562 239.962ZM545.337 242H525.177V250H545.337V242ZM528.949 244.669C528.304 242.841 527.9 241.192 527.702 239.711L519.772 240.769C520.055 242.888 520.61 245.079 521.405 247.331L528.949 244.669ZM527.702 239.711C527.502 238.207 527.377 235.214 527.377 230.52H519.377C519.377 235.186 519.493 238.673 519.772 240.769L527.702 239.711ZM527.377 230.52V207.48H519.377V230.52H527.377ZM527.377 207.48C527.377 201.535 526.439 196.266 523.557 192.843L517.438 197.997C518.396 199.134 519.377 201.905 519.377 207.48H527.377ZM523.637 192.941C520.729 189.259 516.038 188 510.957 188V196C514.996 196 516.665 197.021 517.358 197.899L523.637 192.941ZM510.957 188H504.117V196H510.957V188ZM500.117 192V246H508.117V192H500.117ZM504.117 242H484.317V250H504.117V242ZM488.317 246V120H480.317V246H488.317ZM511.317 178C515.915 178 520.105 176.81 523.05 173.681L517.225 168.199C516.329 169.15 514.64 170 511.317 170V178ZM522.966 173.768C526.123 170.611 527.197 165.875 527.197 160.68H519.197C519.197 165.085 518.232 167.189 517.309 168.112L522.966 173.768ZM527.197 160.68V150.96H519.197V160.68H527.197ZM527.197 150.96C527.197 146.082 526.332 141.634 523.765 138.517L517.59 143.603C518.383 144.566 519.197 146.718 519.197 150.96H527.197ZM523.855 138.63C521.29 135.276 517.368 134 513.117 134V142C515.827 142 516.945 142.764 517.5 143.49L523.855 138.63ZM513.117 134H504.117V142H513.117V134ZM500.117 138V174H508.117V138H500.117ZM504.117 178H511.317V170H504.117V178ZM577.615 239.52L580.537 236.788L580.537 236.788L577.615 239.52ZM577.615 126.48L580.537 129.212L580.537 129.212L577.615 126.48ZM622.255 126.48L619.333 129.212L619.333 129.212L622.255 126.48ZM622.255 239.52L619.333 236.788L619.333 236.788L622.255 239.52ZM599.935 243.8C590.987 243.8 584.739 241.283 580.537 236.788L574.693 242.252C580.811 248.797 589.443 251.8 599.935 251.8V243.8ZM580.537 236.788C576.275 232.229 573.875 225.532 573.875 216.12H565.875C565.875 226.868 568.635 235.771 574.693 242.252L580.537 236.788ZM573.875 216.12V149.88H565.875V216.12H573.875ZM573.875 149.88C573.875 140.468 576.275 133.771 580.537 129.212L574.693 123.748C568.635 130.229 565.875 139.132 565.875 149.88H573.875ZM580.537 129.212C584.739 124.717 590.987 122.2 599.935 122.2V114.2C589.443 114.2 580.811 117.203 574.693 123.748L580.537 129.212ZM599.935 122.2C608.883 122.2 615.131 124.717 619.333 129.212L625.177 123.748C619.059 117.203 610.427 114.2 599.935 114.2V122.2ZM619.333 129.212C623.595 133.771 625.995 140.468 625.995 149.88H633.995C633.995 139.132 631.235 130.229 625.177 123.748L619.333 129.212ZM625.995 149.88V216.12H633.995V149.88H625.995ZM625.995 216.12C625.995 225.532 623.595 232.229 619.333 236.788L625.177 242.252C631.235 235.771 633.995 226.868 633.995 216.12H625.995ZM619.333 236.788C615.131 241.283 608.883 243.8 599.935 243.8V251.8C610.427 251.8 619.059 248.797 625.177 242.252L619.333 236.788ZM599.935 233.8C604.194 233.8 608.044 232.474 610.714 229.243C613.263 226.157 614.195 221.97 614.195 217.38H606.195C606.195 221.07 605.417 223.093 604.546 224.147C603.796 225.056 602.516 225.8 599.935 225.8V233.8ZM614.195 217.38V148.62H606.195V217.38H614.195ZM614.195 148.62C614.195 144.03 613.263 139.843 610.714 136.757C608.044 133.526 604.194 132.2 599.935 132.2V140.2C602.516 140.2 603.796 140.944 604.546 141.853C605.417 142.907 606.195 144.93 606.195 148.62H614.195ZM599.935 132.2C595.676 132.2 591.826 133.526 589.156 136.757C586.607 139.843 585.675 144.03 585.675 148.62H593.675C593.675 144.93 594.453 142.907 595.324 141.853C596.074 140.944 597.354 140.2 599.935 140.2V132.2ZM585.675 148.62V217.38H593.675V148.62H585.675ZM585.675 217.38C585.675 221.97 586.607 226.157 589.156 229.243C591.826 232.474 595.676 233.8 599.935 233.8V225.8C597.354 225.8 596.074 225.056 595.324 224.147C594.453 223.093 593.675 221.07 593.675 217.38H585.675ZM657.785 120V116H653.785V120H657.785ZM682.625 120L686.501 119.01L685.732 116H682.625V120ZM701.885 195.42L698.01 196.41L698.778 199.42H701.885V195.42ZM702.245 195.42V199.42H706.245V195.42H702.245ZM702.245 120V116H698.245V120H702.245ZM719.885 120H723.885V116H719.885V120ZM719.885 246V250H723.885V246H719.885ZM699.545 246L695.672 247L696.447 250H699.545V246ZM675.785 154.02L679.658 153.02L678.883 150.02H675.785V154.02ZM675.425 154.02V150.02H671.425V154.02H675.425ZM675.425 246V250H679.425V246H675.425ZM657.785 246H653.785V250H657.785V246ZM657.785 124H682.625V116H657.785V124ZM678.75 120.99L698.01 196.41L705.761 194.43L686.501 119.01L678.75 120.99ZM701.885 199.42H702.245V191.42H701.885V199.42ZM706.245 195.42V120H698.245V195.42H706.245ZM702.245 124H719.885V116H702.245V124ZM715.885 120V246H723.885V120H715.885ZM719.885 242H699.545V250H719.885V242ZM703.418 245L679.658 153.02L671.912 155.02L695.672 247L703.418 245ZM675.785 150.02H675.425V158.02H675.785V150.02ZM671.425 154.02V246H679.425V154.02H671.425ZM675.425 242H657.785V250H675.425V242ZM661.785 246V120H653.785V246H661.785Z" fill="#354ED2"/>
<path d="M127.507 170V130H215.007V220C202.507 230 167.507 250 127.507 250C-39.9931 250 -44.9931 7.5 127.507 7.5V102.5C22.5069 112.5 52.5069 235 127.507 235C180.007 235 200.007 192.5 177.507 170C159.507 152 136.674 162.5 127.507 170Z" fill="#354ED2"/>
<path d="M177.507 40C132.507 57.5 150.007 107.5 180.007 120C176.674 105 176.007 73 200.007 65C230.007 55 267.507 40 265.007 0C242.507 25 222.507 22.5 177.507 40Z" fill="#354ED2"/>
</svg>
